<?xml version="1.0" encoding="utf-8"?>

<svg xmlns="http://www.w3.org/2000/svg" width="720" height="136" viewBox="0 0 720 136">
  <g fill="none" fill-rule="evenodd" transform="translate(3 1)">
    <path fill="#1C2841" d="M546.947205,2.14896241 C547.759215,2.14896241 548.414692,2.79384421 548.414692,3.59705028 L548.414692,18.220807 C548.414692,19.0201515 547.759215,19.6688949 546.947205,19.6688949 L534.620319,21.1169828 C533.810266,21.1169828 533.152832,20.4682394 533.152832,19.6688949 L533.152832,5.04513816 C533.152832,4.24193208 533.810266,3.59705028 534.620319,3.59705028 L546.947205,2.14896241 Z M546.947205,28.0716662 C547.759215,28.0716662 548.414692,28.716548 548.414692,29.519754 L548.414692,101.489721 C548.414692,102.292927 547.759215,102.937809 546.947205,102.937809 L534.620319,102.937809 C533.810266,102.937809 533.152832,102.292927 533.152832,101.489721 L533.152832,30.9678419 C533.152832,30.1646358 533.810266,29.519754 534.620319,29.519754 L546.947205,28.0716662 Z M441.877128,76.8722275 C441.877128,86.327276 436.885717,90.9206107 426.619181,90.9206107 C416.344819,90.9206107 411.355365,86.327276 411.355365,76.8722275 L411.355365,55.5853358 C411.355365,46.1341489 416.344819,41.5388834 426.619181,41.5388834 C436.885717,41.5388834 441.877128,46.1341489 441.877128,55.5853358 L441.877128,76.8722275 Z M426.619181,28.0716662 C446.013483,28.0716662 457.140944,38.2565509 457.140944,56.0197621 L457.140944,76.439732 C457.140944,94.2010124 446.013483,104.385897 426.619181,104.385897 C407.21901,104.385897 396.091548,94.2010124 396.091548,76.439732 L396.091548,56.0197621 C396.091548,38.2565509 407.21901,28.0716662 426.619181,28.0716662 Z M506.597196,28.0716662 C517.889016,28.0716662 523.618083,34.5996463 523.618083,47.4741129 L523.618083,101.489721 C523.618083,102.292927 522.964562,102.937809 522.150597,102.937809 L509.825667,102.937809 C509.011701,102.937809 508.35818,102.292927 508.35818,101.489721 L508.35818,47.6208525 C508.35818,43.9736018 506.835907,42.5525449 502.92848,42.5525449 C497.937069,42.5525449 487.664664,45.5626369 480.472023,49.0882482 L480.472023,101.489721 C480.472023,102.292927 479.814589,102.937809 479.004536,102.937809 L466.675693,102.937809 C465.865641,102.937809 465.208207,102.292927 465.208207,101.489721 L465.208207,32.4159298 C465.208207,31.6127237 465.865641,30.9678419 466.675693,30.9678419 L476.658515,29.519754 C477.360952,29.519754 477.965556,30.0140347 478.098608,30.6917398 L478.916487,34.9529797 C486.735255,31.502669 498.138604,28.0716662 506.597196,28.0716662 Z M712.532513,29.5545081 C713.340609,29.5158925 714,30.1646358 714,30.9639803 L714,41.7976084 C714,42.5969529 713.340609,43.2495579 712.532513,43.3248584 C706.674307,43.8867165 697.388053,45.8638392 690.811756,49.0882482 L690.811756,101.493583 C690.811756,102.292927 690.158236,102.941671 689.34427,102.941671 L677.015427,102.941671 C676.201461,102.941671 675.54794,102.292927 675.54794,101.493583 L675.54794,32.4120682 C675.54794,31.6127237 676.201461,30.9639803 677.015427,30.9639803 L686.994335,29.5158925 C687.700685,29.5158925 688.305289,30.0140347 688.438342,30.6956014 L689.260134,34.9529797 C696.63083,31.699609 704.259803,29.9078416 712.532513,29.5545081 Z M601.015278,89.7061477 C601.359649,89.9281878 601.59249,90.2795905 601.660972,90.6792627 L603.279121,100.091834 C603.39652,100.781124 602.99932,101.453037 602.33406,101.694385 C597.530487,103.43209 592.032304,104.389759 586.864795,104.389759 C573.565454,104.389759 567.634852,98.9816332 567.634852,86.8659647 L567.634852,42.5525449 L556.483911,42.5525449 C555.671902,42.5525449 555.016425,41.9038015 555.016425,41.104457 L555.016425,30.9678419 C555.016425,30.1646358 555.671902,29.519754 556.483911,29.519754 L567.634852,29.519754 L567.634852,13.5907874 C567.634852,12.8667435 568.17293,12.2566158 568.894934,12.1542842 L581.223777,10.414648 C581.640543,10.3547937 582.072963,10.4802946 582.393853,10.754466 C582.714743,11.030568 582.898668,11.4302403 582.898668,11.8492204 L582.898668,29.519754 L601.680539,29.519754 C602.097305,29.519754 602.494505,29.689663 602.774306,29.9947269 C603.048236,30.2997907 603.187158,30.7033245 603.144112,31.1107199 L602.116872,41.247335 C602.040562,41.9868252 601.408565,42.5525449 600.657212,42.5525449 L582.898668,42.5525449 L582.898668,84.8405724 C582.898668,89.6520857 583.352611,91.2102283 588.770571,91.2102283 C591.881642,91.2102283 595.196205,90.7043629 599.851072,89.5169309 C600.244359,89.4223225 600.672865,89.4841075 601.015278,89.7061477 Z M651.723786,76.8722275 C651.723786,86.327276 646.734332,90.9206107 636.461926,90.9206107 C626.18952,90.9206107 621.194196,86.327276 621.194196,76.8722275 L621.194196,55.5853358 C621.194196,46.1341489 626.18952,41.5388834 636.461926,41.5388834 C646.734332,41.5388834 651.723786,46.1341489 651.723786,55.5853358 L651.723786,76.8722275 Z M636.461926,28.0716662 C655.860141,28.0716662 666.987602,38.2565509 666.987602,56.0197621 L666.987602,76.439732 C666.987602,94.2010124 655.860141,104.385897 636.461926,104.385897 C617.059798,104.385897 605.934293,94.2010124 605.934293,76.439732 L605.934293,56.0197621 C605.934293,38.2565509 617.059798,28.0716662 636.461926,28.0716662 Z M341.890423,116.310418 C341.673235,117.080801 340.837746,117.69479 340.027694,117.687067 L328.786747,119 C327.974738,118.992277 327.156859,118.355118 326.955324,117.580874 L305.486975,34.2038356 C305.28544,33.4295913 304.964549,33.4295913 304.768884,34.2038356 L287.681472,101.385459 C287.48385,102.157773 286.665971,102.787208 285.855918,102.787208 L266.467487,102.787208 C265.659391,102.787208 265,102.138465 265,101.33912 L267.934973,89.7544173 C267.934973,88.9550728 268.594364,88.3063294 269.40246,88.3063294 L273.953624,88.3063294 C274.765634,88.3063294 276.037455,87.6768939 276.23312,86.9045803 L297.605594,2.87300634 C297.803215,2.09683124 298.621094,1.46739571 299.431147,1.46739571 L310.722966,0 C311.533019,0 312.352855,0.62943553 312.552433,1.40561063 L334.412112,87.7367482 C334.609734,88.5109925 334.95019,88.5148541 335.169335,87.7444713 L351.916291,30.1878052 C352.133479,29.4174225 352.968968,28.7918485 353.779021,28.787987 L364.967138,27.3205912 C365.779147,27.3205912 366.614636,27.9442344 366.835737,28.7126864 L383.594433,86.9142343 C383.817491,87.684617 384.65298,88.3063294 385.463033,88.3063294 L390.967086,88.3063294 C391.777138,88.3063294 392.434572,88.9550728 392.434572,89.7544173 L395.369545,101.33912 C395.369545,102.138465 394.712111,102.787208 393.902059,102.787208 L374.378618,102.787208 C373.568566,102.787208 372.73112,102.165496 372.510019,101.395113 L359.828978,57.3577953 C359.607877,56.5874126 359.251767,56.5912742 359.032622,57.3577953 L341.890423,116.310418 Z"/>
    <path fill="#0076FF" d="M206.27297,2 C207.081654,2 207.737977,2.64601574 207.737977,3.45063414 L207.737977,18.1001048 C207.737977,18.9008549 207.081654,19.550739 206.27297,19.550739 L193.966912,21.0013731 C193.156275,21.0013731 192.501905,20.351489 192.501905,19.550739 L192.501905,4.90126829 C192.501905,4.09664988 193.156275,3.45063414 193.966912,3.45063414 L206.27297,2 Z M206.27297,27.9682854 C207.081654,27.9682854 207.737977,28.6143011 207.737977,29.4189195 L207.737977,101.515437 C207.737977,102.320055 207.081654,102.966071 206.27297,102.966071 L193.966912,102.966071 C193.156275,102.966071 192.501905,102.320055 192.501905,101.515437 L192.501905,30.8695537 C192.501905,30.0649353 193.156275,29.4189195 193.966912,29.4189195 L206.27297,27.9682854 Z M14.0640661,3.45063414 C14.8727499,3.45063414 15.529073,4.09664988 15.529073,4.90126829 L15.529073,85.9936512 C15.529073,87.5990196 16.8417192,88.8949195 18.4590868,88.8949195 L52.0096979,88.8949195 C52.820335,88.8949195 53.4747047,89.5448036 53.4747047,90.3455536 L53.4747047,101.519305 C53.4747047,102.320055 52.820335,102.969939 52.0096979,102.969939 L5.86002755,102.969939 C2.623339,102.969939 0,100.372337 0,97.1674024 L0,6.35190243 C0,5.54728403 0.654369743,4.90126829 1.46500689,4.90126829 L14.0640661,3.45063414 Z M86.5838604,27.964417 C105.951251,27.964417 117.057957,38.1710789 117.057957,55.9655244 L117.057957,76.4214 C117.057957,94.2139113 105.951251,104.420573 86.5838604,104.420573 C67.2164693,104.420573 56.1097638,94.2139113 56.1097638,76.4214 L56.1097638,55.9655244 C56.1097638,38.1710789 67.2164693,27.964417 86.5838604,27.964417 Z M86.5838604,90.9277414 C76.3307655,90.9277414 71.3458354,86.3263299 71.3458354,76.8546561 L71.3458354,55.5264658 C71.3458354,46.0625286 76.3307655,41.4591829 86.5838604,41.4591829 C96.8369553,41.4591829 101.819932,46.0625286 101.819932,55.5264658 L101.819932,76.8546561 C101.819932,86.3263299 96.8369553,90.9277414 86.5838604,90.9277414 Z M152.216169,27.9682854 C155.572011,27.9682854 160.748369,28.3493186 164.44214,29.4189195 L184.741275,29.4189195 C185.549959,29.4189195 186.206282,30.0649353 186.206282,30.8695537 L186.206282,37.9757268 C186.206282,38.6739654 185.706226,39.2716266 185.01279,39.4031508 L178.621453,40.6042759 C180.502522,44.0161674 181.52412,48.3796749 181.662807,53.6077603 L181.662807,56.8339707 C181.662807,73.2996353 171.204612,82.3670658 152.216169,82.3670658 C149.729564,82.3670658 147.41876,82.2452125 145.33845,81.9995718 C143.144846,83.8370417 141.226664,85.8350485 141.226664,88.0264732 C141.226664,89.4693706 141.453252,90.361027 144.58446,90.6434171 C148.235257,90.9993061 151.009003,91.2816962 153.92925,91.5814939 C156.997951,91.8986992 160.230733,92.231378 164.811322,92.6762391 C178.267898,94.0398352 184.008772,99.5483766 184.008772,111.091556 C184.008772,128.085252 176.679831,133 151.337165,133 C144.662593,133 133.169126,131.808546 125.019781,129.611319 C124.285324,129.414032 123.826289,128.692584 123.963023,127.951793 L125.721031,118.379542 C125.791351,117.986904 126.023799,117.64262 126.359774,117.424058 C126.600035,117.269323 126.881317,117.190022 127.164551,117.190022 C127.275892,117.190022 127.387232,117.201627 127.496619,117.222903 C135.083402,118.990743 144.103937,120.087422 151.04221,120.087422 C169.505204,120.087422 169.505204,117.451136 169.505204,111.669876 C169.505204,107.122621 168.76684,106.167137 160.291287,105.430215 C157.310486,105.157495 155.081722,104.942801 153.015086,104.745515 C149.583063,104.424442 146.600309,104.142051 141.390745,103.687519 C128.783872,102.648865 126.137093,95.3047882 126.137093,89.3320439 C126.137093,84.8196046 128.205683,80.4290186 131.877967,77.0248638 C126.004266,72.9031286 122.914078,65.9749 122.914078,56.8339707 L122.914078,53.6445097 C122.914078,36.36649 132.49913,27.9682854 152.216169,27.9682854 Z M152.216169,69.4583561 C140.875062,69.4583561 137.417646,66.5087333 137.417646,56.8339707 L137.417646,53.7895732 C137.417646,44.1360865 141.150484,40.8769951 152.216169,40.8769951 C163.141214,40.8769951 167.012739,44.2579397 167.012739,53.7895732 L167.012739,56.8339707 C167.012739,65.6847731 162.588418,69.4583561 152.216169,69.4583561 Z M260.863033,88.3649545 C261.675624,88.3688228 262.140519,88.7131066 261.943232,89.4925807 L258.974151,101.16535 C258.77491,101.94289 257.981853,102.815205 257.171216,102.85002 C254.114235,102.966071 249.953615,102.966071 246.267658,102.966071 C219.950274,102.966071 216.555365,91.5118635 216.555365,77.3923578 L216.555365,55.1531692 C216.555365,36.0976391 225.513394,27.9682854 246.502059,27.9682854 C252.520307,27.9682854 259.868782,28.9121647 263.980568,30.2158012 C264.638844,30.4227583 265.06272,31.0649057 264.992399,31.7457367 L262.496027,41.9233858 C262.456961,42.3314976 262.24014,42.7047941 261.902211,42.9465665 C261.56819,43.1960755 261.142361,43.2869819 260.736066,43.1999439 C255.673002,42.1458164 252.104245,41.6313248 246.798967,41.6313248 C235.182439,41.6313248 231.82269,44.5674083 231.82269,54.7141106 L231.82269,75.3517991 C231.82269,85.4985014 235.182439,88.3398101 246.798967,88.3398101 C251.549496,88.3398101 256.239471,88.3398101 260.863033,88.3649545 Z"/>
  </g>
</svg>
